<?xml version="1.0" encoding="UTF-8" standalone="no"?>
<svg
   height="256"
   width="256"
   version="1.1"
   id="svg319"
   sodipodi:docname="icon.svg"
   inkscape:version="1.2.1 (9c6d41e410, 2022-07-14)"
   xmlns:inkscape="http://www.inkscape.org/namespaces/inkscape"
   xmlns:sodipodi="http://sodipodi.sourceforge.net/DTD/sodipodi-0.dtd"
   xmlns="http://www.w3.org/2000/svg"
   xmlns:svg="http://www.w3.org/2000/svg">
  <defs
     id="defs323" />
  <sodipodi:namedview
     id="namedview321"
     pagecolor="#ffffff"
     bordercolor="#000000"
     borderopacity="0.25"
     inkscape:showpageshadow="2"
     inkscape:pageopacity="0.0"
     inkscape:pagecheckerboard="0"
     inkscape:deskcolor="#d1d1d1"
     showgrid="false"
     inkscape:zoom="1.1464844"
     inkscape:cx="40.558772"
     inkscape:cy="44.483815"
     inkscape:window-width="1304"
     inkscape:window-height="745"
     inkscape:window-x="-8"
     inkscape:window-y="-8"
     inkscape:window-maximized="1"
     inkscape:current-layer="g1008" />
  <g
     id="g1008"
     transform="matrix(0.60149218,0,0,0.63972489,-76.174973,-81.711676)">
    <g
       id="g407"
       inkscape:label="old_logo"
       transform="translate(-659.80144,59.991715)">
      <path
         id="corner"
         d="m 317.47243,130.21574 c -5.57424,-2.286 -10.72547,-2.5536 -16.98675,-2.47465 l -106.11298,0.58212 c -21.89745,-1.11326 -43.48297,4.24949 -62.14064,14.99037 l 0.0193,0.0221 c -3.33711,1.81891 -5.60803,5.36489 -5.60803,9.43138 0,5.92692 4.80981,10.73322 10.73289,10.73322 3.09166,0 5.86704,-1.31426 7.82729,-3.40363 23.33021,-12.50417 51.84509,-14.90872 78.18123,-4.09313 46.7786,19.20199 69.21374,72.88818 50.00732,119.66325 -5.1513,12.54406 -12.80078,23.31822 -22.11594,32.03249 l 0.0818,0.11526 c -3.18785,1.85972 -5.34038,5.31151 -5.34038,9.27161 0,5.92668 4.813,10.72928 10.7406,10.72928 3.81112,0 7.15845,-2.00022 9.0628,-5.0105 11.34954,-10.67028 20.65405,-23.86041 26.94862,-39.18863 0.43387,-1.04671 43.90983,-106.94451 44.021,-107.22721 7.42264,-18.07364 -1.2436,-38.754 -19.31816,-46.17332 z"
         style="fill:#478cbf;fill-opacity:1" />
      <path
         id="text1890-3"
         style="font-style:normal;font-variant:normal;font-weight:normal;font-stretch:normal;font-size:126.681px;font-family:'Archivo Black';-inkscape-font-specification:'Archivo Black, Normal';font-variant-ligatures:normal;font-variant-caps:normal;font-variant-numeric:normal;font-variant-east-asian:normal;fill:#424040;fill-opacity:1;stroke:none;stroke-width:2.96955;stroke-opacity:1"
         d="m 198.343,185.60974 c -15.20171,0 -26.94044,3.8411 -35.21692,11.52641 -8.19203,7.60085 -12.29022,18.79312 -12.29022,33.57255 0,14.94835 3.63279,26.2219 10.89582,33.82275 7.26304,7.5164 18.1145,11.27622 32.55612,11.27622 12.83699,0 23.22641,-3.3808 31.16508,-10.13711 l 2.78542,8.61536 h 14.44244 v -48.64577 h -46.48996 v 17.737 h 19.76067 c 0,3.37816 -1.60377,6.16349 -4.81302,8.35929 -3.20925,2.11135 -7.0965,3.16711 -11.65701,3.16711 -6.58741,0 -11.5695,-1.72957 -14.94766,-5.19218 -3.37815,-3.54706 -5.06563,-8.53109 -5.06563,-14.94959 v -8.10615 c 0,-6.4185 1.68748,-11.36042 5.06563,-14.82303 3.37816,-3.54706 8.36025,-5.32169 14.94766,-5.32169 4.56051,0 8.44776,1.13999 11.65701,3.42025 3.20925,2.1958 4.81302,5.11041 4.81302,8.74193 h 26.72929 c 0,-7.09413 -1.98547,-13.08886 -5.95481,-17.98719 -3.88488,-4.98278 -9.16161,-8.74259 -15.83346,-11.27621 -6.67186,-2.53362 -14.18854,-3.79995 -22.54947,-3.79995 z"
         transform="scale(0.96408275,1.0372554)" />
    </g>
    <path
       id="text399"
       style="font-size:160.861px;font-family:'archivo black';-inkscape-font-specification:'archivo black, ';fill:#478cbf;fill-opacity:1;stroke-width:7.54155;stroke-opacity:0.488636"
       d="m 237.84425,243.34398 c -31.62698,0 -56.04944,11.91413 -73.26857,35.73938 -17.04344,23.56343 -25.56152,58.25565 -25.56152,104.07345 0,46.34142 7.55439,81.2916 22.66507,104.85503 15.11067,23.30162 37.6898,34.95169 67.73545,34.95169 26.70722,0 48.31618,-10.47095 64.83249,-31.41621 l 5.79939,26.70836 h 30.0426 V 367.44564 h -96.72597 v 54.98602 h 41.11536 c 0,10.47263 -3.33738,19.10734 -10.01419,25.91454 -6.67682,6.54541 -14.76159,9.81871 -24.24969,9.81871 -13.70502,0 -24.06644,-5.3675 -31.09466,-16.10194 C 202.0918,431.0667 198.57328,415.6213 198.57328,395.7233 v -25.13298 c 0,-19.89801 3.51852,-35.21443 10.54673,-45.94888 7.02822,-10.99626 17.38964,-16.49273 31.09466,-16.49273 9.4881,0 17.57287,3.53125 24.24969,10.60029 6.67681,6.8072 10.01419,15.84105 10.01419,27.09915 h 55.61061 c 0,-21.99255 -4.12645,-40.58226 -12.38461,-55.76758 -8.08246,-15.44716 -19.0648,-27.0972 -32.94554,-34.95169 -13.88073,-7.85448 -29.51991,-11.7849 -46.91476,-11.7849 z m 128.35317,4.71396 v 270.19774 h 78.54193 c 63.42967,0 95.14135,-45.03419 95.14135,-135.09887 0,-90.06469 -31.71168,-135.09887 -95.14135,-135.09887 z m 58.24728,64.7986 h 19.24259 c 24.42304,0 36.63428,19.50479 36.63428,58.51536 v 23.56371 c 0,39.01057 -12.21124,58.52144 -36.63428,58.52144 H 424.4447 Z" />
    <path
       id="text403"
       style="font-size:53.0908px;font-family:'archivo black';-inkscape-font-specification:'archivo black, ';fill:#363d52;stroke-width:2.48903;stroke-opacity:0.488636"
       d="m 166.0304,133.18269 c -8.87969,0 -15.61904,4.4704 -20.21023,13.40913 -4.54075,8.93872 -6.80602,22.14883 -6.80602,39.629 0,17.4802 2.26527,30.69028 6.80602,39.62899 4.59119,8.93875 11.33054,13.40915 20.21023,13.40915 7.97153,0 14.12432,-3.72535 18.46326,-11.17427 4.38939,-7.44895 6.58521,-18.17547 6.58521,-32.17948 h -15.43692 c 0,5.95915 -0.83537,10.57735 -2.5003,13.85486 -1.66495,3.27755 -4.10957,4.91548 -7.33855,4.91548 -3.27943,0 -5.73055,-2.08742 -7.34504,-6.25882 -1.56404,-4.27071 -2.34444,-10.07736 -2.34444,-17.427 v -9.53782 c 0,-7.44895 0.7804,-13.26168 2.34444,-17.43309 1.61449,-4.1714 4.11407,-6.25273 7.49441,-6.25273 2.92626,0 5.17055,1.73851 6.73457,5.21467 1.6145,3.47619 2.42238,8.19495 2.42238,14.15411 h 15.96945 c 0,-14.10335 -2.24427,-24.93044 -6.73457,-32.4787 -4.49031,-7.64758 -10.59463,-11.47348 -18.3139,-11.47348 z m 59.9358,0 c -8.98059,0 -15.92028,4.51763 -20.8142,13.55568 -4.84347,8.93874 -7.26062,22.10159 -7.26062,39.48245 0,17.38086 2.41715,30.59097 7.26062,39.62899 4.89392,8.93875 11.83361,13.40915 20.8142,13.40915 8.98059,0 15.92028,-4.52374 20.8142,-13.5618 4.89392,-9.03805 7.33855,-22.19478 7.33855,-39.47634 0,-17.28155 -2.44463,-30.4444 -7.33855,-39.48245 -4.89392,-9.03805 -11.83361,-13.55568 -20.8142,-13.55568 z m 122.07317,0 c -6.76067,0 -12.36088,2.68469 -16.80072,8.04792 -4.38939,5.26392 -6.58521,13.5069 -6.58521,24.72996 0,7.6476 1.0357,13.70258 3.10427,18.17194 2.06857,4.46939 4.48571,7.69799 7.26061,9.68439 2.77491,1.88705 6.28272,3.72613 10.52075,5.51385 3.48125,1.39048 5.98084,2.73282 7.49441,4.02397 1.56404,1.19184 2.34444,3.02477 2.34444,5.50776 0,2.78095 -0.70445,4.61999 -2.11713,5.51385 -1.36224,0.89389 -3.10239,1.34337 -5.22142,1.34337 -2.8758,0 -4.99568,-0.84562 -6.3579,-2.53406 -1.36224,-1.78775 -2.04571,-5.26472 -2.04571,-10.42933 h -15.8136 c 0,13.60675 2.24429,23.09148 6.73458,28.45473 4.54076,5.36325 10.8729,8.04792 18.99581,8.04792 6.96248,0 12.50774,-2.93304 16.64486,-8.79289 4.18758,-5.85981 6.28647,-14.84786 6.28647,-26.96479 -0.0505,-7.15099 -1.08615,-12.80984 -3.10427,-16.98124 -2.01811,-4.17141 -4.39329,-7.1517 -7.11773,-8.93942 -2.67401,-1.88709 -6.09938,-3.6789 -10.28697,-5.36735 -3.58214,-1.39045 -6.18514,-2.7267 -7.79964,-4.01785 -1.61449,-1.29115 -2.42237,-3.27799 -2.42237,-5.9596 0,-1.88706 0.58006,-3.47776 1.74047,-4.76891 1.21087,-1.29115 2.93005,-1.93566 5.14997,-1.93566 2.27039,0 3.96209,0.99342 5.07204,2.97981 1.10997,1.98637 1.66254,4.46995 1.66254,7.44951 v 0.59229 h 15.66423 v -1.7891 c -0.10093,-10.42851 -2.29672,-18.26923 -6.58521,-23.53315 -4.28849,-5.36323 -9.7578,-8.04792 -16.41757,-8.04792 z m 58.64994,0 c -8.98059,0 -15.92028,4.51763 -20.8142,13.55568 -4.84347,8.93874 -7.26062,22.10159 -7.26062,39.48245 0,17.38086 2.41715,30.59097 7.26062,39.62899 4.89392,8.93875 11.83361,13.40915 20.8142,13.40915 8.98059,0 15.92028,-4.52374 20.8142,-13.5618 4.89392,-9.03805 7.33855,-22.19478 7.33855,-39.47634 0,-17.28155 -2.44463,-30.4444 -7.33855,-39.48245 -4.89392,-9.03805 -11.83361,-13.55568 -20.8142,-13.55568 z m -143.56278,1.78911 v 102.49806 h 15.35899 v -49.75913 l 21.87278,49.75913 h 14.60566 V 134.9718 h -15.35901 v 50.50408 L 277.73219,134.9718 Z m 180.72311,0 v 102.49806 h 43.44031 V 211.24998 H 460.57243 V 134.9718 Z m 50.47362,0 v 102.49806 h 45.56394 v -24.58341 h -28.83466 v -15.64399 h 24.21722 v -23.53928 h -24.21722 v -14.14796 h 28.30213 V 134.9718 Z M 225.9662,157.76609 c 3.58215,0 6.30957,2.13465 8.17632,6.40539 1.91719,4.27071 2.87047,10.03012 2.87047,17.28043 v 9.53782 c 0,7.25031 -0.95328,13.00972 -2.87047,17.28046 -1.86675,4.27072 -4.59417,6.40536 -8.17632,6.40536 -3.58214,0 -6.30306,-2.13464 -8.16981,-6.40536 -1.86675,-4.27074 -2.80554,-10.03015 -2.80554,-17.28046 v -9.53782 c 0,-7.25031 0.93879,-13.00972 2.80554,-17.28043 1.86675,-4.27074 4.58767,-6.40539 8.16981,-6.40539 z m 180.72311,0 c 3.58214,0 6.30306,2.13465 8.16981,6.40539 1.91722,4.27071 2.87698,10.03012 2.87698,17.28043 v 9.53782 c 0,7.25031 -0.95976,13.00972 -2.87698,17.28046 -1.86675,4.27072 -4.58767,6.40536 -8.16981,6.40536 -3.58214,0 -6.30956,-2.13464 -8.17631,-6.40536 -1.86675,-4.27074 -2.79904,-10.03015 -2.79904,-17.28046 v -9.53782 c 0,-7.25031 0.93229,-13.00972 2.79904,-17.28043 1.86675,-4.27074 4.59417,-6.40539 8.17631,-6.40539 z" />
  </g>
</svg>
